<svg width="15" height="16" viewBox="0 0 15 16" fill="none" xmlns="http://www.w3.org/2000/svg">
<path d="M9.01408 8L5.98592 5.00704L5.98591 10.993L9.01408 8ZM2.21831 13.3169C0.739437 11.838 7.5007e-07 10.0657 1.03519e-06 8C1.32032e-06 5.93427 0.739438 4.17371 2.21831 2.71831C3.67371 1.23944 5.43427 0.5 7.5 0.5C9.56573 0.5 11.338 1.23944 12.8169 2.71831C14.2723 4.17371 15 5.93427 15 8C15 10.0657 14.2723 11.838 12.8169 13.3169C11.338 14.7723 9.56573 15.5 7.5 15.5C5.43427 15.5 3.67371 14.7723 2.21831 13.3169Z" fill="white"/>
</svg>
