<svg width="24" height="25" viewBox="0 0 24 25" fill="none" xmlns="http://www.w3.org/2000/svg">
<path d="M20 0.308594H4C1.79086 0.308594 0 2.08121 0 4.26785V20.1049C0 22.2915 1.79086 24.0641 4 24.0641H20C22.2091 24.0641 24 22.2915 24 20.1049V4.26785C24 2.08121 22.2091 0.308594 20 0.308594Z" fill="#E0E0E0"/>
<path d="M10.9996 17.3748C10.7344 17.3747 10.4801 17.2704 10.2926 17.0848L10.2696 17.0611L5.34357 12.1853C5.1561 11.9996 5.05078 11.7479 5.05078 11.4854C5.05078 11.223 5.1561 10.9712 5.34357 10.7856C5.5311 10.6 5.7854 10.4959 6.05057 10.4959C6.31573 10.4959 6.57004 10.6 6.75757 10.7856L11.0006 14.9856L18.0716 7.98652C18.2591 7.80096 18.5134 7.69678 18.7786 7.69678C19.0437 7.69678 19.2981 7.80096 19.4856 7.98652C19.5786 8.07845 19.6523 8.18752 19.7026 8.30768C19.753 8.42784 19.7789 8.55676 19.7789 8.68683C19.7789 8.81691 19.753 8.94559 19.7026 9.06575C19.6523 9.18591 19.5786 9.29522 19.4856 9.38715L11.7076 17.0858C11.6761 17.1156 11.6427 17.1434 11.6076 17.1689C11.4322 17.3027 11.217 17.3751 10.9956 17.3748H10.9996Z" fill="black"/>
</svg>
