<svg width="53" height="21" viewBox="0 0 53 21" fill="none" xmlns="http://www.w3.org/2000/svg">
<path d="M50.1878 0.757812H1.73061C0.774821 0.757812 0 1.46686 0 2.34151V18.9704C0 19.845 0.774821 20.5541 1.73061 20.5541H50.1878C51.1435 20.5541 51.9184 19.845 51.9184 18.9704V2.34151C51.9184 1.46686 51.1435 0.757812 50.1878 0.757812Z" fill="url(#paint0_linear_679_4674)"/>
<path d="M14.6391 11.3506H12.3598V10.4307H14.6391C15.0805 10.4307 15.4379 10.3604 15.7113 10.2197C15.9848 10.0791 16.184 9.88379 16.309 9.63379C16.4379 9.38379 16.5023 9.09863 16.5023 8.77832C16.5023 8.48535 16.4379 8.20996 16.309 7.95215C16.184 7.69434 15.9848 7.4873 15.7113 7.33105C15.4379 7.1709 15.0805 7.09082 14.6391 7.09082H12.6234V14.6963H11.4926V6.16504H14.6391C15.2836 6.16504 15.8285 6.27637 16.2738 6.49902C16.7191 6.72168 17.057 7.03027 17.2875 7.4248C17.518 7.81543 17.6332 8.2627 17.6332 8.7666C17.6332 9.31348 17.518 9.78027 17.2875 10.167C17.057 10.5537 16.7191 10.8486 16.2738 11.0518C15.8285 11.251 15.2836 11.3506 14.6391 11.3506ZM25.6313 10.1611V10.7002C25.6313 11.3408 25.5512 11.915 25.391 12.4229C25.2309 12.9307 25.0004 13.3623 24.6996 13.7178C24.3988 14.0732 24.0375 14.3447 23.6156 14.5322C23.1977 14.7197 22.7289 14.8135 22.2094 14.8135C21.7055 14.8135 21.2426 14.7197 20.8207 14.5322C20.4027 14.3447 20.0395 14.0732 19.7309 13.7178C19.4262 13.3623 19.1898 12.9307 19.0219 12.4229C18.8539 11.915 18.7699 11.3408 18.7699 10.7002V10.1611C18.7699 9.52051 18.852 8.94824 19.016 8.44434C19.184 7.93652 19.4203 7.50488 19.725 7.14941C20.0297 6.79004 20.391 6.5166 20.809 6.3291C21.2309 6.1416 21.6938 6.04785 22.1977 6.04785C22.7172 6.04785 23.1859 6.1416 23.6039 6.3291C24.0258 6.5166 24.3871 6.79004 24.6879 7.14941C24.9926 7.50488 25.225 7.93652 25.3852 8.44434C25.5492 8.94824 25.6313 9.52051 25.6313 10.1611ZM24.5121 10.7002V10.1494C24.5121 9.6416 24.4594 9.19238 24.3539 8.80176C24.2523 8.41113 24.102 8.08301 23.9027 7.81738C23.7035 7.55176 23.4594 7.35059 23.1703 7.21387C22.8852 7.07715 22.5609 7.00879 22.1977 7.00879C21.8461 7.00879 21.5277 7.07715 21.2426 7.21387C20.9613 7.35059 20.7191 7.55176 20.516 7.81738C20.3168 8.08301 20.1625 8.41113 20.0531 8.80176C19.9438 9.19238 19.8891 9.6416 19.8891 10.1494V10.7002C19.8891 11.2119 19.9438 11.665 20.0531 12.0596C20.1625 12.4502 20.3188 12.7803 20.5219 13.0498C20.7289 13.3154 20.9731 13.5166 21.2543 13.6533C21.5395 13.79 21.8578 13.8584 22.2094 13.8584C22.5766 13.8584 22.9027 13.79 23.1879 13.6533C23.4731 13.5166 23.7133 13.3154 23.9086 13.0498C24.1078 12.7803 24.2582 12.4502 24.3598 12.0596C24.4613 11.665 24.5121 11.2119 24.5121 10.7002ZM32.6098 14.6963H30.8285L30.8402 13.7764H32.6098C33.2191 13.7764 33.727 13.6494 34.1332 13.3955C34.5395 13.1377 34.8441 12.7783 35.0473 12.3174C35.2543 11.8525 35.3578 11.3096 35.3578 10.6885V10.167C35.3578 9.67871 35.2992 9.24512 35.182 8.86621C35.0648 8.4834 34.893 8.16113 34.6664 7.89941C34.4398 7.63379 34.1625 7.43262 33.8344 7.2959C33.5102 7.15918 33.1371 7.09082 32.7152 7.09082H30.7934V6.16504H32.7152C33.2738 6.16504 33.7836 6.25879 34.2445 6.44629C34.7055 6.62988 35.102 6.89746 35.434 7.24902C35.7699 7.59668 36.0277 8.01855 36.2074 8.51465C36.3871 9.00684 36.477 9.56152 36.477 10.1787V10.6885C36.477 11.3057 36.3871 11.8623 36.2074 12.3584C36.0277 12.8506 35.768 13.2705 35.4281 13.6182C35.0922 13.9658 34.6859 14.2334 34.2094 14.4209C33.7367 14.6045 33.2035 14.6963 32.6098 14.6963ZM31.432 6.16504V14.6963H30.3012V6.16504H31.432ZM41.2172 10.7061H39.0551L39.0434 9.79785H41.0063C41.3305 9.79785 41.6137 9.74316 41.8559 9.63379C42.0981 9.52441 42.2856 9.36816 42.4184 9.16504C42.5551 8.95801 42.6234 8.71191 42.6234 8.42676C42.6234 8.11426 42.5629 7.86035 42.4418 7.66504C42.3246 7.46582 42.143 7.32129 41.8969 7.23145C41.6547 7.1377 41.3461 7.09082 40.9711 7.09082H39.307V14.6963H38.1762V6.16504H40.9711C41.4086 6.16504 41.7992 6.20996 42.143 6.2998C42.4867 6.38574 42.7777 6.52246 43.016 6.70996C43.2582 6.89355 43.4418 7.12793 43.5668 7.41309C43.6918 7.69824 43.7543 8.04004 43.7543 8.43848C43.7543 8.79004 43.6645 9.1084 43.4848 9.39355C43.3051 9.6748 43.0551 9.90527 42.7348 10.085C42.4184 10.2646 42.0473 10.3799 41.6215 10.4307L41.2172 10.7061ZM41.1645 14.6963H38.6098L39.2484 13.7764H41.1645C41.5238 13.7764 41.8285 13.7139 42.0785 13.5889C42.3324 13.4639 42.5258 13.2881 42.6586 13.0615C42.7914 12.8311 42.8578 12.5596 42.8578 12.2471C42.8578 11.9307 42.8012 11.6572 42.6879 11.4268C42.5746 11.1963 42.3969 11.0186 42.1547 10.8936C41.9125 10.7686 41.6 10.7061 41.2172 10.7061H39.6059L39.6176 9.79785H41.8207L42.0609 10.126C42.4711 10.1611 42.8188 10.2783 43.1039 10.4775C43.3891 10.6729 43.6059 10.9229 43.7543 11.2275C43.9066 11.5322 43.9828 11.8682 43.9828 12.2354C43.9828 12.7666 43.8656 13.2158 43.6313 13.583C43.4008 13.9463 43.0746 14.2236 42.6527 14.415C42.2309 14.6025 41.7348 14.6963 41.1645 14.6963Z" fill="white"/>
<defs>
<linearGradient id="paint0_linear_679_4674" x1="45.8439" y1="20.5541" x2="25.9592" y2="20.5541" gradientUnits="userSpaceOnUse">
<stop stop-color="#2BECB2"/>
<stop offset="0.652" stop-color="#18E4BB"/>
<stop offset="1" stop-color="#13E2BD"/>
</linearGradient>
</defs>
</svg>
