<svg width="30" height="34" viewBox="0 0 30 34" fill="none" xmlns="http://www.w3.org/2000/svg">
<path d="M22.3455 8.03164C22.009 8.55771 21.4719 9.10116 21.325 9.71253C20.8257 8.85471 21.0185 7.63196 20.4434 6.74095C20.1274 6.25754 19.6282 6.08218 19.2822 5.71883C18.8715 5.28597 18.9663 4.90208 19.1021 4.3223C18.69 4.60063 18.3578 4.98185 18.1384 5.42815C17.9267 5.83416 17.9299 6.5893 17.6044 6.84996C17.4812 6.39972 17.5176 5.68724 17.1558 5.37444C17.0357 6.04427 16.4843 7.18014 15.7782 7.35233C16.5681 6.26386 16.0941 4.44078 15.7387 3.28438C15.4227 2.27647 14.5538 0.770936 15.726 0C14.973 0.431274 14.3532 1.06144 13.9345 1.8215C13.4605 2.77727 13.5838 4.04426 13.1351 5.07428C13.0324 5.30809 12.6217 6.32705 12.2472 6.28124C11.8728 6.23542 11.9992 5.44237 12.0561 5.17539C12.2283 4.34916 12.8555 3.78991 12.9234 2.93841C12.5679 3.94157 11.402 4.36021 10.5679 4.82309C10.0623 5.08926 9.62959 5.47523 9.30764 5.94726C8.9857 6.41929 8.78429 6.963 8.72104 7.53085C7.85371 7.71884 8.01486 6.16433 7.93112 5.67776C7.78578 4.88786 7.1807 4.35548 6.6088 3.80571C7.31341 4.55769 6.4287 6.8231 6.0843 7.5972C5.67196 8.50558 4.52184 9.56246 5.20907 10.5909C4.96204 10.3473 4.77234 10.0519 4.65374 9.72586C4.53515 9.39986 4.49063 9.05155 4.52342 8.70621C4.56608 8.02532 4.76198 7.44238 4.12057 6.95265C4.38124 8.47714 3.12685 10.0301 2.31324 11.1975C1.91512 11.771 1.50594 12.3034 1.41431 13.0111C1.32268 13.7189 1.84403 14.275 1.81085 14.8942C1.65223 14.7359 1.45764 14.6183 1.24369 14.5514C1.95461 15.5356 0.94668 17.9732 0.894545 19.2071C0.840831 20.482 1.3369 22.0017 2.51861 22.602C2.50961 20.954 2.85328 19.3231 3.52656 17.8188C4.19984 16.3145 5.18714 14.9716 6.42219 13.8803C7.65724 12.789 9.11147 11.9746 10.6872 11.4916C12.263 11.0086 13.9239 10.8684 15.5583 11.0802C17.1928 11.292 18.763 11.851 20.1637 12.7196C21.5643 13.5883 22.7628 14.7465 23.6789 16.1166C24.595 17.4866 25.2074 19.0368 25.4749 20.663C25.7425 22.2892 25.6591 23.9538 25.2303 25.5452C26.4464 24.3821 27.3355 22.9199 27.8086 21.305C28.2036 19.9496 28.1404 18.3666 28.0061 16.9685C27.9097 15.9748 28.1641 15.1312 29.112 14.7126C27.2241 14.4377 27.3188 16.9843 26.3172 17.8974C26.3931 16.6462 26.6522 15.3824 26.7469 14.1186C26.788 13.5862 26.9318 12.9369 26.7706 12.4282C26.6095 11.9195 26.3078 11.7078 26.2967 11.1407C25.8891 11.5514 25.9254 12.1896 25.5194 12.5862C25.4215 11.8231 25.6332 11.2434 24.8685 10.8057C25.1087 11.3966 24.3014 12.1849 24.3045 12.8421C23.7121 11.9116 23.5968 10.7457 23.6726 9.66514C23.7184 9.05219 23.8637 8.4803 23.6726 7.90368C23.5146 7.42974 23.0881 6.95581 23.3282 6.42658C22.5509 6.71884 22.7389 7.41552 22.3455 8.03164Z" fill="#FF673E"/>
<path d="M25.4215 13.4887C25.0364 13.6809 24.9227 14.1671 24.585 14.4117C24.0042 14.8359 24.3325 13.9859 24.2693 13.6698C24.2154 13.8875 24.1104 14.0891 23.9632 14.2576C23.6901 14.0098 23.8779 13.5093 23.8401 13.1709C23.7975 12.7944 23.5718 12.4068 23.3982 12.1097C23.0923 12.3902 22.7598 12.6398 22.4055 12.8548C22.3928 12.8089 22.3775 12.7638 22.3597 12.7198C22.2129 12.3528 21.9336 12.2304 21.8641 11.7999C21.8181 11.3326 21.8441 10.861 21.9415 10.4018C21.6889 10.7704 21.1965 11.3169 21.1239 11.7999C20.7057 11.0151 19.8613 10.7085 19.6641 9.79495C19.4573 8.82107 19.4826 7.81225 18.9823 6.93528C19.1575 7.73917 18.4267 8.61295 17.868 9.13405C17.5398 8.60183 18.0259 7.86308 17.9896 7.26414C17.666 7.74075 17.3677 8.0585 16.8296 8.28886C16.4808 8.43502 15.6411 8.78771 15.3429 8.44773C15.4602 8.29288 15.5657 8.1293 15.6585 7.95841C15.3271 7.92981 14.8284 8.31428 14.5127 8.46203C14.0613 8.68127 13.9256 9.03872 13.5468 9.3088C13.3606 8.42549 14.0108 7.51516 14.2302 6.6938C14.4228 5.96935 14.5932 4.80165 14.2302 4.13599C14.3596 5.20995 13.5421 6.5953 12.7451 7.28162C12.3395 7.63113 11.9402 7.8885 11.5977 8.32699C11.432 8.50728 11.2971 8.71396 11.1984 8.93864C11.0958 9.22301 11.1811 9.45973 10.897 9.65038C10.8196 8.95929 10.7723 8.58118 10.4582 7.95205C10.1647 7.36423 10.2452 6.81295 10.5466 6.24261C10.0447 6.73685 9.64268 7.3244 9.36294 7.9727C9.13883 8.51127 8.88947 9.44543 8.26923 9.66467C8.19769 9.45137 8.18946 9.22171 8.24555 9.00377C8.12245 9.34217 7.8289 9.62178 7.63004 9.92999C7.4012 10.289 7.35069 10.6433 7.24495 11.031C6.7557 10.2604 7.07135 9.3231 6.77937 8.46203C6.83619 9.49151 6.37219 10.4686 5.80403 11.2772C5.23586 12.0859 4.12794 12.6562 4.2179 13.7635C3.74443 13.1439 3.88174 12.2797 3.35619 11.6649C3.68446 12.3814 2.96952 13.5252 2.67281 14.2338C2.48066 14.6845 2.39477 15.1739 2.42187 15.6636C2.43292 15.9941 2.56865 16.6311 2.37295 16.8933C2.24501 16.6841 2.12806 16.4682 2.02258 16.2467C1.97997 16.6772 2.13148 17.1697 2.09202 17.6352C2.04941 18.1595 1.92315 18.6663 1.87738 19.1905C1.80321 20.0421 2.01469 21.1351 2.67755 21.7086C2.8309 19.5021 3.60514 17.385 4.90974 15.6051C6.21433 13.8252 7.99535 12.4559 10.0446 11.6573C12.0938 10.8588 14.3265 10.6641 16.4816 11.0958C18.6367 11.5276 20.6252 12.5681 22.2145 14.0956C24.929 16.7233 25.9833 20.5266 25.6487 23.8423C26.2011 23.3577 26.5452 22.3997 26.6746 21.6753C26.7582 21.1987 26.7961 20.722 26.9097 20.2454C27.0234 19.7688 27.3011 19.3081 27.4085 18.8792C27.1859 19.0047 26.7677 19.2827 26.6462 19.5337C26.5546 19.3748 26.5846 19.235 26.4552 19.0841C26.3258 18.9332 26.1569 18.9379 26.0401 18.8188C25.7734 18.5487 25.7418 18.0403 25.7371 17.6765C25.7276 16.852 26.3889 15.7431 25.8476 15.0075C25.8334 15.1664 25.8476 15.6716 25.6598 15.7589C25.3946 15.8813 25.3441 15.3935 25.2905 15.2124C25.0869 14.6087 25.3062 14.1019 25.4215 13.4887Z" fill="#FF9B50"/>
<path d="M23.1973 14.2435C22.9949 13.9278 22.8834 13.5695 23.0153 13.1828C22.7735 13.2522 22.4392 13.3091 22.2837 13.5237C22.177 13.4259 22.1644 13.2901 22.0687 13.1986C21.9729 13.107 21.805 13.0818 21.7061 12.9728C21.4863 12.7329 21.5852 12.3904 21.2728 12.815C21.0436 12.6492 20.9306 12.313 20.7187 12.1489C20.601 12.0589 20.4518 12.0826 20.3733 12.0005C20.2949 11.9184 20.276 11.6848 20.207 11.5759C20.1865 11.6295 20.1253 11.6722 20.0971 11.7242C19.9652 11.5301 19.9636 11.2381 19.8302 11.0376C19.6654 10.7898 19.3593 10.6272 19.1442 10.4535C18.7047 10.1142 18.5163 9.68323 18.656 9.10708C18.2661 9.51637 18.0041 10.0317 17.9025 10.5893C17.7607 10.2202 17.5193 9.89828 17.2056 9.65955C17.1852 9.67534 17.1695 9.70375 17.1491 9.71638C17.1318 9.61693 17.0659 9.60431 17.0219 9.52696C16.7959 9.70849 16.3391 10.2294 16.0973 9.78899C15.9011 9.43225 16.4568 8.89871 16.7048 8.64773C16.1111 8.91195 15.5565 9.25721 15.0566 9.67376C14.8494 9.85529 14.5982 10.2373 14.3188 10.0305C14.0394 9.82372 14.2638 9.4875 14.3188 9.24125C14.0739 9.29965 13.964 9.49381 13.7756 9.63745C13.5873 9.7811 13.4617 9.74795 13.2105 9.74953C12.7537 9.74953 12.5748 9.96578 12.3644 10.3178C12.2256 10.217 12.1104 10.087 12.0267 9.93672C11.9431 9.78649 11.8931 9.6197 11.8803 9.44802C11.8674 9.27633 11.892 9.1039 11.9523 8.94277C12.0126 8.78163 12.1072 8.63569 12.2294 8.51514C11.9062 8.79484 11.6031 9.09708 11.3221 9.41962C11.1023 9.6785 10.5043 10.111 10.4666 10.403C9.8528 9.8695 9.6817 9.37384 9.87635 8.60985C9.38815 9.04078 9.24845 9.60431 8.96275 10.1615C8.84188 10.403 8.71473 10.6351 8.4824 10.7266C8.44944 10.7377 8.32543 10.6966 8.2281 10.7456C8.13077 10.7945 8.08525 10.8892 8.01304 10.9839C7.69909 11.3912 7.34118 11.9121 6.91421 12.2294C6.75723 12.3462 6.47311 12.3004 6.36636 12.3872C6.22351 12.493 6.24549 12.8387 6.15444 12.9792C5.74003 12.635 6.08067 12.1189 6.08538 11.7163C5.68815 12.2517 5.33584 12.8193 5.03206 13.4132C4.85906 13.7426 4.64315 14.0473 4.39003 14.3193C4.14986 14.5971 4.07608 14.8386 3.9191 15.137C3.76213 14.867 3.74329 14.3903 3.72916 14.0825C3.65224 14.3761 3.63812 14.6903 3.54236 14.9902C3.41207 15.4022 3.18132 15.7794 3.04632 16.1851C2.91601 16.5099 2.85195 16.8578 2.85795 17.208C2.86893 17.4148 2.9019 17.6815 2.80614 17.8662C2.71675 17.7096 2.65663 17.5379 2.62876 17.3595C2.58481 18.2198 2.50161 19.1243 2.97568 19.8488C3.58193 17.294 5.03629 15.0233 7.09874 13.4115C9.16119 11.7998 11.7085 10.9433 14.3202 10.9834C16.9319 11.0235 19.452 11.9578 21.4646 13.6321C23.4772 15.3064 24.8619 17.6206 25.3903 20.1929C25.4652 19.8997 25.4822 19.5946 25.4405 19.2948C25.4358 19.096 25.4111 18.8982 25.3668 18.7044C25.2842 18.4369 25.2218 18.1636 25.18 17.8867C25.1376 17.6531 25.0559 17.4716 25.023 17.2316C24.99 16.9917 24.8425 16.8228 24.7718 16.6002C24.6604 16.2419 24.7844 15.871 24.5489 15.5332C24.4689 15.4179 24.3605 15.4179 24.3025 15.2443C24.2664 15.1291 24.3025 15.0123 24.2648 14.9112C24.1282 15.0233 23.9508 15.0691 23.8849 15.2475C23.7468 15.1054 23.7279 14.8797 23.6023 14.7139C23.4768 14.5482 23.3088 14.4219 23.1973 14.2435Z" fill="#FFCC4D"/>
<path d="M14.1749 33.4269C20.3488 33.4269 25.3537 28.422 25.3537 22.2481C25.3537 16.0743 20.3488 11.0693 14.1749 11.0693C8.00101 11.0693 2.99609 16.0743 2.99609 22.2481C2.99609 28.422 8.00101 33.4269 14.1749 33.4269Z" fill="#161616" stroke="#384CD1" stroke-linecap="round" stroke-linejoin="round"/>
<path d="M5.00755 23.3089C4.85993 22.046 4.97559 20.7661 5.34724 19.5501C5.71889 18.3341 6.33847 17.2083 7.16692 16.2437" fill="#161616"/>
<path d="M5.00755 23.3089C4.85993 22.046 4.97559 20.7661 5.34724 19.5501C5.71889 18.3341 6.33847 17.2083 7.16692 16.2437" stroke="#384CD1" stroke-linecap="round" stroke-linejoin="round"/>
<path d="M9.66016 14.198C10.4911 13.732 11.3895 13.3981 12.3231 13.2083L9.66016 14.198Z" fill="#161616"/>
<path d="M9.66016 14.198C10.4911 13.732 11.3895 13.3981 12.3231 13.2083" stroke="#384CD1" stroke-linecap="round" stroke-linejoin="round"/>
<path d="M17.4836 23.7856C17.6945 23.7856 17.8655 23.3439 17.8655 22.799C17.8655 22.2542 17.6945 21.8125 17.4836 21.8125C17.2726 21.8125 17.1016 22.2542 17.1016 22.799C17.1016 23.3439 17.2726 23.7856 17.4836 23.7856Z" fill="white" stroke="#384CD1" stroke-linecap="round" stroke-linejoin="round"/>
<path d="M10.9914 23.7856C11.2023 23.7856 11.3734 23.3439 11.3734 22.799C11.3734 22.2542 11.2023 21.8125 10.9914 21.8125C10.7804 21.8125 10.6094 22.2542 10.6094 22.799C10.6094 23.3439 10.7804 23.7856 10.9914 23.7856Z" fill="white" stroke="#384CD1" stroke-linecap="round" stroke-linejoin="round"/>
<path d="M8.62891 19.0471C8.62891 19.0471 9.69911 21.0155 12.512 19.5538C12.512 19.5538 13.8616 22.1978 13.8616 21.9721C13.8616 21.7463 14.8749 17.134 14.8749 17.134L15.0991 20.5656C15.0991 20.5656 18.1945 20.2847 18.7564 19.216" stroke="#384CD1" stroke-linecap="round" stroke-linejoin="round"/>
<path d="M10.1523 27.2047L18.422 25.5173L18.3668 28.106L10.2076 28.668L10.1523 27.2047Z" fill="white" stroke="#384CD1" stroke-linecap="round" stroke-linejoin="round"/>
</svg>
