<svg width="26" height="29" viewBox="0 0 26 29" fill="none" xmlns="http://www.w3.org/2000/svg">
<path opacity="0.65" d="M18.943 6.48045C18.7553 6.28746 18.6351 6.03888 18.6005 5.77191C18.5658 5.50493 18.6185 5.23392 18.7507 4.9994C18.8829 4.76488 19.0875 4.57947 19.3339 4.4709C19.5802 4.36234 19.8551 4.33645 20.1174 4.39713C20.1354 3.59019 21.0173 2.92425 21.7987 3.12973C21.898 3.16837 22.0045 3.18476 22.1107 3.17773C22.2712 3.14923 22.3732 2.99774 22.4842 2.87775C22.7076 2.64946 23.0071 2.51137 23.3258 2.48979C23.6445 2.46821 23.9599 2.56467 24.212 2.76076C24.3111 2.85979 24.4202 2.94826 24.5375 3.02474C24.794 3.15973 25.1105 3.07874 25.3909 3.15523C25.589 3.22128 25.7575 3.35477 25.8672 3.5324C25.9768 3.71003 26.0206 3.92053 25.9909 4.12715C25.9524 4.33287 25.8573 4.52379 25.7164 4.67851C25.5755 4.83323 25.3942 4.94562 25.193 5.00308C24.9899 5.04002 24.7895 5.09012 24.593 5.15306C24.4466 5.23559 24.3049 5.32622 24.1685 5.42454C23.7186 5.69752 23.1666 5.69602 22.6432 5.68552C22.6053 5.91411 22.4964 6.12496 22.3319 6.28812C22.1674 6.45129 21.9556 6.55847 21.7267 6.59444C21.5768 6.61544 21.4103 6.60794 21.2948 6.70543C21.216 6.7918 21.1566 6.89411 21.1208 7.00541C21.0485 7.15643 20.9427 7.28896 20.8114 7.39292C20.6802 7.49689 20.5269 7.56954 20.3634 7.60536C20.3626 7.75875 20.3184 7.90879 20.2358 8.03807C20.1533 8.16735 20.0357 8.27059 19.8969 8.3358C18.8305 8.83076 18.502 7.1269 18.943 6.48045Z" fill="#C6B6A3"/>
<path opacity="0.65" d="M25.841 3.49146C25.7691 3.60023 25.66 3.6791 25.5341 3.71332C25.4082 3.74755 25.2742 3.73479 25.1571 3.67744C25.3236 3.94742 25.0071 4.24889 24.7251 4.40188C24.6276 4.47031 24.5113 4.50697 24.3921 4.50687C24.1252 4.47687 23.8912 4.0944 23.6737 4.25189C23.5897 4.31189 23.5717 4.42588 23.5237 4.51737C23.4686 4.61112 23.3815 4.68176 23.2784 4.71622C23.1752 4.75069 23.0631 4.74665 22.9628 4.70485C22.8593 4.65686 22.7768 4.56686 22.6628 4.52787C22.3493 4.41838 22.0823 4.76935 21.9353 5.06782C22.1138 5.20131 22.0523 5.51779 21.8663 5.63478C21.7677 5.68724 21.6588 5.71776 21.5472 5.72423C21.4357 5.7307 21.324 5.71298 21.2199 5.67227L21.2604 5.19831C20.9906 5.35068 20.6881 5.43606 20.3785 5.44729C20.5285 5.57178 20.5165 5.81776 20.437 6.00224C20.3575 6.18673 20.233 6.36071 20.2255 6.5602C20.2414 6.66908 20.2368 6.77997 20.212 6.88717C20.1715 6.98166 20.0755 7.03716 20.0005 7.10915C19.8145 7.28314 19.7545 7.55911 19.7005 7.80359C19.6752 8.02836 19.5987 8.24435 19.4771 8.43504C19.6167 8.44255 19.756 8.4147 19.882 8.35405C20.0209 8.28884 20.1384 8.1856 20.2209 8.05632C20.3035 7.92704 20.3477 7.777 20.3485 7.62361C20.512 7.58779 20.6653 7.51514 20.7965 7.41117C20.9278 7.30721 21.0336 7.17468 21.1059 7.02366C21.1417 6.91236 21.2011 6.81005 21.2799 6.72368C21.3954 6.62619 21.5619 6.63369 21.7119 6.61269C21.9408 6.57672 22.1525 6.46954 22.317 6.30637C22.4815 6.14321 22.5904 5.93236 22.6283 5.70377C23.1517 5.71427 23.7067 5.71577 24.1537 5.44279C24.29 5.34447 24.4317 5.25384 24.5781 5.17131C24.7746 5.10837 24.9751 5.05827 25.1781 5.02133C25.3793 4.96387 25.5606 4.85148 25.7015 4.69676C25.8425 4.54204 25.9375 4.35112 25.976 4.1454C26.0146 3.9182 25.9664 3.68482 25.841 3.49146Z" fill="#C6B6A3"/>
<path d="M11.6221 28.2227C17.4885 28.2227 22.2442 23.4671 22.2442 17.6006C22.2442 11.7342 17.4885 6.97852 11.6221 6.97852C5.75568 6.97852 1 11.7342 1 17.6006C1 23.4671 5.75568 28.2227 11.6221 28.2227Z" fill="#FF6969" stroke="#384CD1" stroke-linecap="round" stroke-linejoin="round"/>
<path d="M2.91228 18.6085C2.77152 17.4082 2.88118 16.1917 3.23434 15.036C3.5875 13.8802 4.17649 12.8102 4.96411 11.8936" stroke="#384CD1" stroke-linecap="round" stroke-linejoin="round"/>
<path d="M7.33105 9.9512C8.12076 9.50839 8.97432 9.19064 9.86134 9.00928L7.33105 9.9512Z" fill="#DF0500"/>
<path d="M7.33105 9.9512C8.12076 9.50839 8.97432 9.19064 9.86134 9.00928" stroke="#384CD1" stroke-linecap="round" stroke-linejoin="round"/>
<path d="M14.7673 19.0599C14.9677 19.0599 15.1302 18.6402 15.1302 18.1225C15.1302 17.6048 14.9677 17.1851 14.7673 17.1851C14.5668 17.1851 14.4043 17.6048 14.4043 18.1225C14.4043 18.6402 14.5668 19.0599 14.7673 19.0599Z" fill="#DF0500" stroke="#384CD1" stroke-linecap="round" stroke-linejoin="round"/>
<path d="M8.59539 19.0599C8.79585 19.0599 8.95836 18.6402 8.95836 18.1225C8.95836 17.6048 8.79585 17.1851 8.59539 17.1851C8.39493 17.1851 8.23242 17.6048 8.23242 18.1225C8.23242 18.6402 8.39493 19.0599 8.59539 19.0599Z" fill="#DF0500" stroke="#384CD1" stroke-linecap="round" stroke-linejoin="round"/>
<path d="M11.6701 20.2825C12.72 20.2825 13.0845 21.4239 13.0875 21.4359C13.0919 21.4499 13.0935 21.4646 13.0921 21.4792C13.0908 21.4938 13.0866 21.508 13.0798 21.5209C13.073 21.5339 13.0636 21.5454 13.0523 21.5547C13.041 21.5641 13.028 21.5711 13.014 21.5754C12.9855 21.5843 12.9547 21.5816 12.9283 21.5678C12.9018 21.554 12.882 21.5303 12.873 21.5019C12.861 21.4599 12.552 20.488 11.6476 20.5075C10.6547 20.5255 10.3697 21.5574 10.3667 21.5709C10.363 21.5851 10.3566 21.5985 10.3477 21.6102C10.3389 21.6219 10.3278 21.6317 10.3151 21.6391C10.3024 21.6465 10.2883 21.6513 10.2738 21.6533C10.2592 21.6552 10.2444 21.6542 10.2302 21.6504C10.2013 21.6426 10.1766 21.6238 10.1614 21.598C10.1463 21.5721 10.1419 21.5414 10.1492 21.5124C10.1492 21.5004 10.4822 20.3035 11.6491 20.2825H11.6701Z" fill="#FF2A00" stroke="#384CD1" stroke-linecap="round" stroke-linejoin="round"/>
<path opacity="0.65" d="M15.7542 5.43663C15.567 5.42064 15.39 5.34432 15.2498 5.21915C15.1096 5.09397 15.0138 4.92669 14.9767 4.74242C14.9397 4.55815 14.9635 4.36685 15.0444 4.19724C15.1254 4.02762 15.2592 3.88885 15.4258 3.80177C15.3435 3.68983 15.286 3.56167 15.257 3.42579C15.2281 3.28992 15.2284 3.14944 15.2579 3.01368C15.2874 2.87793 15.3454 2.75 15.4282 2.6384C15.5109 2.5268 15.6164 2.43408 15.7377 2.36639C15.8075 2.34047 15.8713 2.30067 15.9252 2.2494C15.9796 2.14907 16.0006 2.03401 15.9852 1.92093C15.9998 1.69749 16.0963 1.48729 16.2563 1.33063C16.4163 1.17397 16.6285 1.08187 16.8522 1.072C16.9492 1.0795 17.0467 1.07648 17.1431 1.063C17.3396 1.018 17.4716 0.830519 17.6531 0.743527C17.7881 0.688096 17.9383 0.681752 18.0775 0.725598C18.2167 0.769444 18.3361 0.860706 18.415 0.983507C18.4882 1.10989 18.5247 1.25416 18.5205 1.40013C18.5162 1.54611 18.4714 1.68802 18.391 1.80994C18.3004 1.92397 18.2173 2.04371 18.142 2.16841C18.1024 2.27848 18.0689 2.39064 18.0416 2.50438C17.9306 2.85235 17.6366 3.10433 17.3546 3.33681C17.4394 3.47504 17.4782 3.63656 17.4655 3.79822C17.4529 3.95988 17.3894 4.11338 17.2841 4.23673C17.2151 4.31473 17.1236 4.38672 17.1071 4.49171C17.1044 4.57403 17.1198 4.65595 17.1521 4.73169C17.1841 4.84469 17.1897 4.96353 17.1683 5.07902C17.147 5.1945 17.0994 5.30352 17.0291 5.39764C17.0988 5.47922 17.1439 5.57896 17.159 5.68519C17.1742 5.79143 17.1588 5.89978 17.1146 5.99759C16.7637 6.73103 15.8157 5.97959 15.7542 5.43663Z" fill="#C6B6A3"/>
<path opacity="0.65" d="M18.0384 0.716553C18.0501 0.806699 18.0285 0.898022 17.9777 0.973403C17.9269 1.04878 17.8504 1.10305 17.7624 1.12602C17.9724 1.19351 17.9394 1.49799 17.8629 1.70647C17.8422 1.78627 17.7977 1.85792 17.7354 1.91195C17.5854 2.01844 17.2855 1.92245 17.239 2.10544C17.2225 2.17593 17.2645 2.24342 17.281 2.31392C17.2955 2.38861 17.2819 2.46603 17.2429 2.53134C17.2039 2.59666 17.1421 2.64528 17.0695 2.66789C16.993 2.69039 16.909 2.67989 16.834 2.70839C16.618 2.79238 16.636 3.10135 16.6945 3.32484C16.8445 3.31434 16.9585 3.50632 16.9165 3.65631C16.8884 3.72892 16.8449 3.79456 16.789 3.84869C16.7331 3.90282 16.666 3.94414 16.5925 3.96978L16.402 3.6983C16.3282 3.90155 16.2074 4.08449 16.0496 4.23226C16.189 4.23226 16.291 4.36575 16.333 4.49924C16.3571 4.63777 16.408 4.77025 16.483 4.8892C16.531 4.9492 16.6015 4.9957 16.624 5.06919C16.6354 5.14014 16.6319 5.21269 16.6135 5.28217C16.6134 5.46181 16.6696 5.63698 16.774 5.78313C16.8634 5.91306 16.9214 6.06195 16.9435 6.21809C17.0212 6.1593 17.0822 6.08123 17.1205 5.99161C17.1646 5.8938 17.18 5.78545 17.1649 5.67922C17.1497 5.57298 17.1047 5.47325 17.035 5.39166C17.1052 5.29755 17.1529 5.18853 17.1742 5.07304C17.1955 4.95756 17.19 4.83871 17.158 4.72572C17.1256 4.64997 17.1103 4.56806 17.113 4.48574C17.1295 4.38075 17.221 4.30875 17.29 4.23076C17.3952 4.10741 17.4587 3.95391 17.4714 3.79225C17.4841 3.63059 17.4452 3.46907 17.3605 3.33083C17.6424 3.09835 17.9364 2.84637 18.0474 2.4984C18.0747 2.38466 18.1083 2.27251 18.1479 2.16243C18.2231 2.03774 18.3063 1.918 18.3969 1.80396C18.4773 1.68204 18.5221 1.54013 18.5263 1.39416C18.5306 1.24818 18.494 1.10391 18.4209 0.977531C18.3302 0.846092 18.1939 0.753072 18.0384 0.716553Z" fill="#C6B6A3"/>
</svg>
