<svg width="24" height="24" viewBox="0 0 24 24" fill="none" xmlns="http://www.w3.org/2000/svg">
<path d="M12 2.63884L9.17492 7.56164C8.9013 8.03843 8.44385 8.38136 7.91006 8.50985L2.40689 9.83444L6.16136 14.3444C6.49794 14.7487 6.6619 15.2697 6.61768 15.7943L6.1241 21.6496L11.1898 19.3973C11.7056 19.1679 12.2943 19.1679 12.8101 19.3973L17.8759 21.6496L17.3823 15.7943C17.3381 15.2697 17.5021 14.7487 17.8387 14.3444L21.5931 9.83444L16.0899 8.50985C15.5561 8.38136 15.0986 8.03842 14.825 7.56162L12 2.63884ZM12 0C12.507 0 12.9313 0.297621 13.1753 0.720995L13.1957 0.707989L16.5564 6.56439L22.9219 8.09652L22.9166 8.12093C23.377 8.23277 23.7786 8.56251 23.9353 9.06651C24.092 9.57102 23.9525 10.0846 23.643 10.4582L23.661 10.4744L19.3724 15.6259L19.9459 22.4291L19.9222 22.4311C19.9626 22.9238 19.7865 23.4249 19.3763 23.7367C18.9662 24.0483 18.4558 24.0683 18.0205 23.8758L18.0112 23.8987L12 21.2261L5.98886 23.8987L5.97947 23.8758C5.54419 24.0683 5.03371 24.0483 4.62349 23.7367C4.21337 23.4249 4.03742 22.9238 4.07786 22.4311L4.0541 22.4291L4.62758 15.6259L0.339051 10.4744L0.357024 10.4582C0.04746 10.0846 -0.0919417 9.57102 0.064739 9.06651C0.221317 8.56251 0.623047 8.23277 1.0833 8.12093L1.0781 8.09652L7.4435 6.56439L10.8043 0.707989L10.8247 0.720995C11.0687 0.297621 11.493 0 12 0Z" fill="#e0e0e0"/>
</svg>
