<svg width="23" height="22" viewBox="0 0 23 22" fill="none" xmlns="http://www.w3.org/2000/svg">
<path d="M17.5963 21.9997C17.5415 21.9997 17.482 21.9862 17.4242 21.9606L16.4865 21.546L16.4778 21.567L11.4055 19.3118L11.0004 19.1317L10.5953 19.3118L5.52305 21.567L5.51445 21.546L4.57668 21.9606C4.51894 21.9862 4.45939 21.9997 4.40446 21.9997C4.33751 21.9997 4.28117 21.9806 4.22716 21.9396C4.06244 21.8143 4.06792 21.5815 4.07353 21.5132L4.15522 20.5179L4.13364 20.5161L4.62306 14.7102L4.65757 14.3008L4.39491 13.9852L0.722292 9.57359L0.73866 9.55883L0.125768 8.81925C0.0714133 8.75365 -0.0478373 8.57796 0.0186695 8.3638C0.0764263 8.17788 0.231709 8.11447 0.319125 8.09323L1.26277 7.8639L1.25802 7.84158L6.67722 6.5372L7.09533 6.43656L7.30966 6.0631L10.1496 1.11446L10.1684 1.12647L10.69 0.221229C10.7282 0.154852 10.835 0.000488281 11.0004 0.000488281C11.1658 0.000488281 11.2727 0.154852 11.3109 0.221229L11.8325 1.12647L11.8513 1.11446L14.6911 6.06309L14.9055 6.43656L15.3236 6.5372L20.7392 7.84069L20.7343 7.86305L21.6817 8.09324C21.7691 8.11448 21.9244 8.1779 21.9823 8.36407C22.0487 8.57792 21.9294 8.75372 21.875 8.81937L21.2624 9.55893L21.2786 9.57359L17.606 13.9852L17.3433 14.3008L17.3778 14.7102L17.8673 20.5161L17.8457 20.5179L17.9274 21.5132C17.933 21.5815 17.9384 21.8142 17.7732 21.9398C17.7195 21.9806 17.6632 21.9997 17.5963 21.9997Z" fill="#2BECB2"/>
</svg>
