<svg width="10" height="19" viewBox="0 0 10 19" fill="none" xmlns="http://www.w3.org/2000/svg">
<path fill-rule="evenodd" clip-rule="evenodd" d="M0.625 3.25C0.625 2.4212 0.95424 1.62634 1.54029 1.04029C2.12634 0.45424 2.9212 0.125 3.75 0.125C4.5788 0.125 5.37366 0.45424 5.95971 1.04029C6.54576 1.62634 6.875 2.4212 6.875 3.25V14.5C6.875 14.9973 6.67746 15.4742 6.32583 15.8258C5.9742 16.1775 5.49728 16.375 5 16.375C4.50272 16.375 4.02581 16.1775 3.67418 15.8258C3.32254 15.4742 3.125 14.9973 3.125 14.5V5.75C3.125 5.58424 3.19085 5.42527 3.30806 5.30806C3.42527 5.19085 3.58424 5.125 3.75 5.125C3.91576 5.125 4.07473 5.19085 4.19194 5.30806C4.30915 5.42527 4.375 5.58424 4.375 5.75V14.5C4.375 14.6658 4.44085 14.8247 4.55806 14.9419C4.67527 15.0592 4.83424 15.125 5 15.125C5.16576 15.125 5.32473 15.0592 5.44194 14.9419C5.55915 14.8247 5.625 14.6658 5.625 14.5V3.25C5.625 3.00377 5.5765 2.75995 5.48228 2.53247C5.38805 2.30498 5.24994 2.09828 5.07583 1.92417C4.90172 1.75006 4.69502 1.61195 4.46753 1.51773C4.24005 1.4235 3.99623 1.375 3.75 1.375C3.50377 1.375 3.25995 1.4235 3.03247 1.51773C2.80498 1.61195 2.59828 1.75006 2.42417 1.92417C2.25006 2.09828 2.11195 2.30498 2.01773 2.53247C1.9235 2.75995 1.875 3.00377 1.875 3.25V14.5C1.875 15.3288 2.20424 16.1237 2.79029 16.7097C3.37634 17.2958 4.1712 17.625 5 17.625C5.8288 17.625 6.62366 17.2958 7.20971 16.7097C7.79576 16.1237 8.125 15.3288 8.125 14.5V5.75C8.125 5.58424 8.19085 5.42527 8.30806 5.30806C8.42527 5.19085 8.58424 5.125 8.75 5.125C8.91576 5.125 9.07473 5.19085 9.19194 5.30806C9.30915 5.42527 9.375 5.58424 9.375 5.75V14.5C9.375 15.6603 8.91407 16.7731 8.09359 17.5936C7.27312 18.4141 6.16032 18.875 5 18.875C3.83968 18.875 2.72688 18.4141 1.90641 17.5936C1.08594 16.7731 0.625 15.6603 0.625 14.5V3.25Z" fill="url(#paint0_linear_2219_5872)"/>
<defs>
<linearGradient id="paint0_linear_2219_5872" x1="5" y1="-1.90625" x2="12.5476" y2="0.0198896" gradientUnits="userSpaceOnUse">
<stop stop-color="#13E2BD"/>
<stop offset="1" stop-color="#2BECB2"/>
</linearGradient>
</defs>
</svg>
