<svg width="24" height="25" viewBox="0 0 24 25" fill="none" xmlns="http://www.w3.org/2000/svg">
<rect x="5" y="10.7275" width="14" height="3.95926" fill="black"/>
<path d="M18.6875 14.006V11.4078H5.3125V14.006H18.6875ZM21.3125 0.829102C22.0208 0.829102 22.6458 1.09718 23.1875 1.63333C23.7292 2.16948 24 2.78811 24 3.48923V21.9245C24 22.6257 23.7292 23.2443 23.1875 23.7804C22.6458 24.3166 22.0208 24.5847 21.3125 24.5847H2.6875C1.97917 24.5847 1.35417 24.3166 0.8125 23.7804C0.270833 23.2443 0 22.6257 0 21.9245V3.48923C0 2.78811 0.270833 2.16948 0.8125 1.63333C1.35417 1.09718 1.97917 0.829102 2.6875 0.829102H21.3125Z" fill="#E0E0E0"/>
</svg>
