<svg width="25" height="24" viewBox="0 0 25 24" fill="none" xmlns="http://www.w3.org/2000/svg">
<path d="M12.12 13.996C13.2356 13.996 14.14 13.1008 14.14 11.9966C14.14 10.8923 13.2356 9.99713 12.12 9.99713C11.0044 9.99713 10.1 10.8923 10.1 11.9966C10.1 13.1008 11.0044 13.996 12.12 13.996Z" fill="#8F8F8F"/>
<path d="M12.12 5.99991C13.2356 5.99991 14.14 5.10474 14.14 4.00049C14.14 2.89624 13.2356 2.00107 12.12 2.00107C11.0044 2.00107 10.1 2.89624 10.1 4.00049C10.1 5.10474 11.0044 5.99991 12.12 5.99991Z" fill="#8F8F8F"/>
<path d="M12.12 21.994C13.2356 21.994 14.14 21.0989 14.14 19.9946C14.14 18.8904 13.2356 17.9952 12.12 17.9952C11.0044 17.9952 10.1 18.8904 10.1 19.9946C10.1 21.0989 11.0044 21.994 12.12 21.994Z" fill="#8F8F8F"/>
</svg>
