<svg width="16" height="16" viewBox="0 0 16 16" fill="none" xmlns="http://www.w3.org/2000/svg">
<path d="M14.2433 15.6184L7.99974 9.31032L1.75609 15.6184C1.59455 15.7816 1.37545 15.8733 1.14704 15.8733C0.918617 15.8733 0.699522 15.7816 0.537981 15.6184C0.376489 15.4552 0.285821 15.2339 0.285821 15.0031C0.285821 14.7723 0.376489 14.551 0.537981 14.3878L6.78163 8.07968L0.537981 1.77247C0.457889 1.69164 0.394367 1.59565 0.351017 1.49C0.307666 1.38434 0.2854 1.27107 0.2854 1.1567C0.2854 1.04232 0.307666 0.929074 0.351017 0.823418C0.394367 0.717763 0.457889 0.621781 0.537981 0.540951C0.699522 0.377791 0.918617 0.286133 1.14704 0.286133C1.37545 0.286133 1.59455 0.377791 1.75609 0.540951L7.99974 6.84904L14.2433 0.540951C14.4048 0.377791 14.6239 0.286133 14.8523 0.286133C15.0808 0.286133 15.2998 0.377791 15.4614 0.540951C15.5415 0.621781 15.605 0.717763 15.6484 0.823418C15.6917 0.929074 15.714 1.04232 15.714 1.1567C15.714 1.27107 15.6917 1.38434 15.6484 1.49C15.605 1.59565 15.5415 1.69164 15.4614 1.77247L9.21774 8.07968L15.4614 14.3878C15.6229 14.551 15.7136 14.7723 15.7136 15.0031C15.7136 15.2339 15.6229 15.4552 15.4614 15.6184C15.2999 15.7817 15.0808 15.8734 14.8523 15.8734C14.6239 15.8734 14.4048 15.7817 14.2433 15.6184Z" fill="#1C1C1E"/>
</svg>
