<svg width="36" height="36" viewBox="0 0 36 36" fill="none" xmlns="http://www.w3.org/2000/svg">
<path d="M17.9688 34.9375C27.3403 34.9375 34.9375 27.3403 34.9375 17.9688C34.9375 8.59717 27.3403 1 17.9688 1C8.59717 1 1 8.59717 1 17.9688C1 27.3403 8.59717 34.9375 17.9688 34.9375Z" fill="#6EFFCF" stroke="#384CD1" stroke-width="2" stroke-miterlimit="10" stroke-linecap="round" stroke-linejoin="round"/>
<path d="M11.6967 19.8465C13.2757 21.3368 15.0608 21.5549 16.5343 20.6851C18.3362 19.6237 19.6061 17.6997 19.3066 15.9098C19.0286 14.247 17.5814 13.0585 13.8891 15.1814C10.1968 17.3043 10.47 18.6892 11.6967 19.8465Z" fill="#6EFFCF" stroke="#384CD1" stroke-width="2" stroke-miterlimit="10" stroke-linecap="round" stroke-linejoin="round"/>
<path d="M29.8203 25.4365C31.8258 22.2498 32.5494 18.27 31.4999 14.3477L29.8203 25.4365Z" fill="#6EFFCF"/>
<path d="M29.8203 25.4365C31.8258 22.2498 32.5494 18.27 31.4999 14.3477" stroke="#384CD1" stroke-width="2" stroke-miterlimit="10" stroke-linecap="round" stroke-linejoin="round"/>
<path d="M29.4325 9.91146C28.5939 8.71824 27.5804 7.67596 26.4375 6.80859L29.4325 9.91146Z" fill="#6EFFCF"/>
<path d="M29.4325 9.91146C28.5939 8.71824 27.5804 7.67596 26.4375 6.80859" stroke="#384CD1" stroke-width="2" stroke-miterlimit="10" stroke-linecap="round" stroke-linejoin="round"/>
<path d="M8.46302 14.922C8.74438 14.769 8.65232 14.056 8.2574 13.3294C7.86248 12.6027 7.31425 12.1376 7.03289 12.2905C6.75153 12.4434 6.84358 13.1565 7.23851 13.8831C7.63343 14.6098 8.18166 15.0749 8.46302 14.922Z" fill="#6EFFCF" stroke="#384CD1" stroke-width="2" stroke-miterlimit="10" stroke-linecap="round" stroke-linejoin="round"/>
<path d="M17.1193 10.2149C17.4006 10.062 17.3086 9.34898 16.9137 8.62233C16.5187 7.89567 15.9705 7.43056 15.6891 7.58348C15.4078 7.73639 15.4998 8.44942 15.8948 9.17608C16.2897 9.90273 16.8379 10.3678 17.1193 10.2149Z" fill="#6EFFCF" stroke="#384CD1" stroke-width="2" stroke-miterlimit="10" stroke-linecap="round" stroke-linejoin="round"/>
</svg>
