<svg width="228" height="40" viewBox="0 0 228 40" fill="none" xmlns="http://www.w3.org/2000/svg">
<path d="M171.058 29.2666H171.136V30.0332H171.058C170.579 30.0332 170.179 30.1113 169.856 30.2676C169.534 30.4206 169.279 30.6273 169.09 30.8877C168.901 31.1449 168.764 31.4346 168.68 31.7568C168.598 32.0791 168.558 32.4062 168.558 32.7383V33.7832C168.558 34.099 168.595 34.3789 168.67 34.623C168.745 34.8639 168.847 35.0674 168.978 35.2334C169.108 35.3994 169.254 35.5247 169.417 35.6094C169.583 35.694 169.756 35.7363 169.935 35.7363C170.143 35.7363 170.328 35.6973 170.491 35.6191C170.654 35.5378 170.791 35.4255 170.901 35.2822C171.015 35.1357 171.102 34.9632 171.16 34.7646C171.219 34.5661 171.248 34.348 171.248 34.1104C171.248 33.8988 171.222 33.6953 171.17 33.5C171.118 33.3014 171.038 33.1257 170.931 32.9727C170.823 32.8164 170.688 32.6943 170.525 32.6064C170.366 32.5153 170.175 32.4697 169.954 32.4697C169.703 32.4697 169.469 32.5316 169.251 32.6553C169.036 32.7757 168.859 32.9352 168.719 33.1338C168.582 33.3291 168.504 33.5423 168.484 33.7734L168.006 33.7686C168.051 33.404 168.136 33.0931 168.26 32.8359C168.387 32.5755 168.543 32.3639 168.729 32.2012C168.917 32.0352 169.127 31.9147 169.358 31.8398C169.593 31.7617 169.84 31.7227 170.101 31.7227C170.455 31.7227 170.761 31.7894 171.019 31.9229C171.276 32.0563 171.487 32.2354 171.653 32.46C171.819 32.6813 171.941 32.932 172.02 33.2119C172.101 33.4886 172.142 33.7734 172.142 34.0664C172.142 34.4017 172.094 34.7158 172 35.0088C171.906 35.3018 171.764 35.5589 171.575 35.7803C171.39 36.0016 171.16 36.1742 170.887 36.2979C170.613 36.4215 170.296 36.4834 169.935 36.4834C169.55 36.4834 169.215 36.4053 168.929 36.249C168.642 36.0895 168.405 35.8779 168.216 35.6143C168.027 35.3506 167.885 35.0576 167.791 34.7354C167.697 34.4131 167.649 34.0859 167.649 33.7539V33.3291C167.649 32.8278 167.7 32.3363 167.801 31.8545C167.902 31.3727 168.076 30.9365 168.323 30.5459C168.574 30.1553 168.921 29.8444 169.363 29.6133C169.806 29.3822 170.371 29.2666 171.058 29.2666ZM178.021 33.9932V34.7354H172.884V34.2031L176.067 29.2764H176.805L176.014 30.7021L173.909 33.9932H178.021ZM177.029 29.2764V36.3857H176.126V29.2764H177.029ZM180.159 32.3867H180.804C181.119 32.3867 181.38 32.3346 181.585 32.2305C181.793 32.123 181.948 31.9782 182.049 31.7959C182.153 31.6104 182.205 31.402 182.205 31.1709C182.205 30.8975 182.16 30.668 182.068 30.4824C181.977 30.2969 181.84 30.1569 181.658 30.0625C181.476 29.9681 181.245 29.9209 180.965 29.9209C180.711 29.9209 180.486 29.9714 180.291 30.0723C180.099 30.1699 179.948 30.3099 179.837 30.4922C179.729 30.6745 179.676 30.8893 179.676 31.1367H178.772C178.772 30.7754 178.864 30.4466 179.046 30.1504C179.228 29.8542 179.484 29.6182 179.812 29.4424C180.145 29.2666 180.529 29.1787 180.965 29.1787C181.395 29.1787 181.771 29.2552 182.093 29.4082C182.415 29.5579 182.666 29.7826 182.845 30.082C183.024 30.3783 183.113 30.7477 183.113 31.1904C183.113 31.3695 183.071 31.5615 182.986 31.7666C182.905 31.9684 182.776 32.1572 182.601 32.333C182.428 32.5088 182.203 32.6536 181.927 32.7676C181.65 32.8783 181.318 32.9336 180.931 32.9336H180.159V32.3867ZM180.159 33.1289V32.5869H180.931C181.383 32.5869 181.757 32.6406 182.054 32.748C182.35 32.8555 182.583 32.9987 182.752 33.1777C182.924 33.3568 183.045 33.5537 183.113 33.7686C183.185 33.9801 183.221 34.1917 183.221 34.4033C183.221 34.7354 183.164 35.0299 183.05 35.2871C182.939 35.5443 182.781 35.7624 182.576 35.9414C182.374 36.1204 182.137 36.2555 181.863 36.3467C181.59 36.4378 181.292 36.4834 180.97 36.4834C180.66 36.4834 180.369 36.4395 180.096 36.3516C179.826 36.2637 179.586 36.1367 179.378 35.9707C179.17 35.8014 179.007 35.5947 178.89 35.3506C178.772 35.1032 178.714 34.8216 178.714 34.5059H179.617C179.617 34.7533 179.671 34.9697 179.778 35.1553C179.889 35.3408 180.045 35.4857 180.247 35.5898C180.452 35.6908 180.693 35.7412 180.97 35.7412C181.246 35.7412 181.484 35.694 181.683 35.5996C181.884 35.502 182.039 35.3555 182.146 35.1602C182.257 34.9648 182.312 34.7191 182.312 34.4229C182.312 34.1266 182.251 33.8841 182.127 33.6953C182.003 33.5033 181.827 33.3617 181.6 33.2705C181.375 33.1761 181.11 33.1289 180.804 33.1289H180.159ZM187.708 29.2764L184.744 36.9961H183.968L186.937 29.2764H187.708ZM191.565 29.2373V36.3857H190.662V30.3652L188.841 31.0293V30.2139L191.424 29.2373H191.565ZM195.14 35.3115V36.0391C195.14 36.3353 195.065 36.6478 194.915 36.9766C194.765 37.3086 194.555 37.5853 194.285 37.8066L193.772 37.4502C193.877 37.307 193.965 37.1605 194.036 37.0107C194.108 36.8643 194.161 36.7113 194.197 36.5518C194.236 36.3955 194.256 36.2295 194.256 36.0537V35.3115H195.14ZM200.657 32.2646V33.3486C200.657 33.9313 200.605 34.4229 200.501 34.8232C200.397 35.2236 200.247 35.5459 200.052 35.79C199.856 36.0342 199.62 36.2116 199.344 36.3223C199.07 36.4297 198.761 36.4834 198.416 36.4834C198.143 36.4834 197.89 36.4492 197.659 36.3809C197.428 36.3125 197.22 36.2035 197.034 36.0537C196.852 35.9007 196.696 35.7021 196.565 35.458C196.435 35.2139 196.336 34.9176 196.268 34.5693C196.199 34.221 196.165 33.8141 196.165 33.3486V32.2646C196.165 31.682 196.217 31.1937 196.321 30.7998C196.429 30.4059 196.58 30.0902 196.775 29.8525C196.971 29.6117 197.205 29.4391 197.479 29.335C197.755 29.2308 198.064 29.1787 198.406 29.1787C198.683 29.1787 198.937 29.2129 199.168 29.2812C199.402 29.3464 199.611 29.4521 199.793 29.5986C199.975 29.7419 200.13 29.9339 200.257 30.1748C200.387 30.4124 200.486 30.7038 200.555 31.0488C200.623 31.3939 200.657 31.7992 200.657 32.2646ZM199.749 33.4951V32.1133C199.749 31.7943 199.729 31.5143 199.69 31.2734C199.655 31.0293 199.601 30.821 199.529 30.6484C199.458 30.4759 199.367 30.3359 199.256 30.2285C199.148 30.1211 199.023 30.043 198.88 29.9941C198.74 29.9421 198.582 29.916 198.406 29.916C198.191 29.916 198.001 29.9567 197.835 30.0381C197.669 30.1162 197.529 30.2415 197.415 30.4141C197.304 30.5866 197.22 30.8128 197.161 31.0928C197.103 31.3727 197.073 31.7129 197.073 32.1133V33.4951C197.073 33.8141 197.091 34.0957 197.127 34.3398C197.166 34.584 197.223 34.7956 197.298 34.9746C197.373 35.1504 197.464 35.2952 197.571 35.4092C197.679 35.5231 197.802 35.6077 197.942 35.6631C198.086 35.7152 198.243 35.7412 198.416 35.7412C198.637 35.7412 198.831 35.6989 198.997 35.6143C199.163 35.5296 199.301 35.3978 199.412 35.2188C199.526 35.0365 199.611 34.8037 199.666 34.5205C199.721 34.234 199.749 33.8923 199.749 33.4951ZM206.282 32.2646V33.3486C206.282 33.9313 206.23 34.4229 206.126 34.8232C206.022 35.2236 205.872 35.5459 205.677 35.79C205.481 36.0342 205.245 36.2116 204.969 36.3223C204.695 36.4297 204.386 36.4834 204.041 36.4834C203.768 36.4834 203.515 36.4492 203.284 36.3809C203.053 36.3125 202.845 36.2035 202.659 36.0537C202.477 35.9007 202.321 35.7021 202.19 35.458C202.06 35.2139 201.961 34.9176 201.893 34.5693C201.824 34.221 201.79 33.8141 201.79 33.3486V32.2646C201.79 31.682 201.842 31.1937 201.946 30.7998C202.054 30.4059 202.205 30.0902 202.4 29.8525C202.596 29.6117 202.83 29.4391 203.104 29.335C203.38 29.2308 203.689 29.1787 204.031 29.1787C204.308 29.1787 204.562 29.2129 204.793 29.2812C205.027 29.3464 205.236 29.4521 205.418 29.5986C205.6 29.7419 205.755 29.9339 205.882 30.1748C206.012 30.4124 206.111 30.7038 206.18 31.0488C206.248 31.3939 206.282 31.7992 206.282 32.2646ZM205.374 33.4951V32.1133C205.374 31.7943 205.354 31.5143 205.315 31.2734C205.28 31.0293 205.226 30.821 205.154 30.6484C205.083 30.4759 204.992 30.3359 204.881 30.2285C204.773 30.1211 204.648 30.043 204.505 29.9941C204.365 29.9421 204.207 29.916 204.031 29.916C203.816 29.916 203.626 29.9567 203.46 30.0381C203.294 30.1162 203.154 30.2415 203.04 30.4141C202.929 30.5866 202.845 30.8128 202.786 31.0928C202.728 31.3727 202.698 31.7129 202.698 32.1133V33.4951C202.698 33.8141 202.716 34.0957 202.752 34.3398C202.791 34.584 202.848 34.7956 202.923 34.9746C202.998 35.1504 203.089 35.2952 203.196 35.4092C203.304 35.5231 203.427 35.6077 203.567 35.6631C203.711 35.7152 203.868 35.7412 204.041 35.7412C204.262 35.7412 204.456 35.6989 204.622 35.6143C204.788 35.5296 204.926 35.3978 205.037 35.2188C205.151 35.0365 205.236 34.8037 205.291 34.5205C205.346 34.234 205.374 33.8923 205.374 33.4951ZM211.907 32.2646V33.3486C211.907 33.9313 211.855 34.4229 211.751 34.8232C211.647 35.2236 211.497 35.5459 211.302 35.79C211.106 36.0342 210.87 36.2116 210.594 36.3223C210.32 36.4297 210.011 36.4834 209.666 36.4834C209.393 36.4834 209.14 36.4492 208.909 36.3809C208.678 36.3125 208.47 36.2035 208.284 36.0537C208.102 35.9007 207.946 35.7021 207.815 35.458C207.685 35.2139 207.586 34.9176 207.518 34.5693C207.449 34.221 207.415 33.8141 207.415 33.3486V32.2646C207.415 31.682 207.467 31.1937 207.571 30.7998C207.679 30.4059 207.83 30.0902 208.025 29.8525C208.221 29.6117 208.455 29.4391 208.729 29.335C209.005 29.2308 209.314 29.1787 209.656 29.1787C209.933 29.1787 210.187 29.2129 210.418 29.2812C210.652 29.3464 210.861 29.4521 211.043 29.5986C211.225 29.7419 211.38 29.9339 211.507 30.1748C211.637 30.4124 211.736 30.7038 211.805 31.0488C211.873 31.3939 211.907 31.7992 211.907 32.2646ZM210.999 33.4951V32.1133C210.999 31.7943 210.979 31.5143 210.94 31.2734C210.905 31.0293 210.851 30.821 210.779 30.6484C210.708 30.4759 210.617 30.3359 210.506 30.2285C210.398 30.1211 210.273 30.043 210.13 29.9941C209.99 29.9421 209.832 29.916 209.656 29.916C209.441 29.916 209.251 29.9567 209.085 30.0381C208.919 30.1162 208.779 30.2415 208.665 30.4141C208.554 30.5866 208.47 30.8128 208.411 31.0928C208.353 31.3727 208.323 31.7129 208.323 32.1133V33.4951C208.323 33.8141 208.341 34.0957 208.377 34.3398C208.416 34.584 208.473 34.7956 208.548 34.9746C208.623 35.1504 208.714 35.2952 208.821 35.4092C208.929 35.5231 209.052 35.6077 209.192 35.6631C209.336 35.7152 209.493 35.7412 209.666 35.7412C209.887 35.7412 210.081 35.6989 210.247 35.6143C210.413 35.5296 210.551 35.3978 210.662 35.2188C210.776 35.0365 210.861 34.8037 210.916 34.5205C210.971 34.234 210.999 33.8923 210.999 33.4951Z" fill="black"/>
<line x1="5" y1="34.4502" x2="157" y2="34.4502" stroke="#E4E4E4" stroke-width="10" stroke-linecap="round"/>
<line x1="5" y1="34.4502" x2="117" y2="34.4502" stroke="url(#paint0_linear_660_19386)" stroke-width="10" stroke-linecap="round"/>
<path d="M80.7906 0.385742C72.4221 0.385742 65.6406 7.04216 65.6406 15.2565C65.6406 23.0459 72.8549 29.4191 80.7906 29.4191V34.376C89.9528 29.9856 95.9406 22.7626 95.9406 15.2565C95.9406 7.04216 89.1592 0.385742 80.7906 0.385742Z" fill="#13E2BD"/>
<path d="M73.5146 12.9824V13.7734L71.124 19.3809H69.5596L71.9546 14.125H68.9004V12.9824H73.5146ZM76.8014 12.9824V19.3809H75.3204V14.6523L73.8615 15.0786V13.9536L76.6652 12.9824H76.8014ZM78.0974 18.6865C78.0974 18.4756 78.1736 18.2998 78.326 18.1592C78.4783 18.0156 78.6746 17.9438 78.9148 17.9438C79.158 17.9438 79.3543 18.0156 79.5037 18.1592C79.656 18.2998 79.7322 18.4756 79.7322 18.6865C79.7322 18.8975 79.656 19.0747 79.5037 19.2183C79.3543 19.3589 79.158 19.4292 78.9148 19.4292C78.6746 19.4292 78.4783 19.3589 78.326 19.2183C78.1736 19.0747 78.0974 18.8975 78.0974 18.6865ZM83.2167 12.9824V19.3809H81.7358V14.6523L80.2768 15.0786V13.9536L83.0805 12.9824H83.2167ZM84.3985 14.5513V14.2129C84.3985 13.9697 84.4512 13.7485 84.5567 13.5493C84.6622 13.3501 84.8204 13.1904 85.0313 13.0703C85.2422 12.9502 85.5045 12.8901 85.8179 12.8901C86.1402 12.8901 86.4068 12.9502 86.6177 13.0703C86.8287 13.1904 86.9854 13.3501 87.0879 13.5493C87.1934 13.7485 87.2462 13.9697 87.2462 14.2129V14.5513C87.2462 14.7886 87.1934 15.0068 87.0879 15.2061C86.9854 15.4053 86.8287 15.5649 86.6177 15.6851C86.4097 15.8052 86.1475 15.8652 85.8311 15.8652C85.5118 15.8652 85.2466 15.8052 85.0357 15.6851C84.8248 15.5649 84.6651 15.4053 84.5567 15.2061C84.4512 15.0068 84.3985 14.7886 84.3985 14.5513ZM85.3477 14.2129V14.5513C85.3477 14.6392 85.3653 14.7227 85.4004 14.8018C85.4356 14.8809 85.4883 14.9453 85.5587 14.9951C85.6319 15.042 85.7213 15.0654 85.8267 15.0654C85.9351 15.0654 86.023 15.042 86.0904 14.9951C86.1578 14.9453 86.2076 14.8809 86.2398 14.8018C86.275 14.7227 86.2925 14.6392 86.2925 14.5513V14.2129C86.2925 14.1191 86.275 14.0327 86.2398 13.9536C86.2076 13.8745 86.1563 13.8115 86.086 13.7646C86.0157 13.7148 85.9263 13.6899 85.8179 13.6899C85.7154 13.6899 85.629 13.7148 85.5587 13.7646C85.4883 13.8115 85.4356 13.8745 85.4004 13.9536C85.3653 14.0327 85.3477 14.1191 85.3477 14.2129ZM87.4351 18.1504V17.812C87.4351 17.5718 87.4879 17.3521 87.5933 17.1528C87.7017 16.9536 87.8614 16.7939 88.0723 16.6738C88.2862 16.5537 88.5499 16.4937 88.8633 16.4937C89.1856 16.4937 89.4507 16.5537 89.6588 16.6738C89.8697 16.7939 90.0264 16.9536 90.129 17.1528C90.2344 17.3521 90.2872 17.5718 90.2872 17.812V18.1504C90.2872 18.3906 90.2344 18.6104 90.129 18.8096C90.0264 19.0088 89.8712 19.1685 89.6631 19.2886C89.4551 19.4087 89.1929 19.4688 88.8765 19.4688C88.5572 19.4688 88.2906 19.4087 88.0767 19.2886C87.8629 19.1685 87.7017 19.0088 87.5933 18.8096C87.4879 18.6104 87.4351 18.3906 87.4351 18.1504ZM88.3887 17.812V18.1504C88.3887 18.2412 88.4107 18.3262 88.4546 18.4053C88.4986 18.4844 88.5572 18.5488 88.6304 18.5986C88.7037 18.6455 88.7842 18.6689 88.8721 18.6689C89.0069 18.6689 89.1065 18.6455 89.171 18.5986C89.2383 18.5488 89.2823 18.4844 89.3028 18.4053C89.3262 18.3262 89.3379 18.2412 89.3379 18.1504V17.812C89.3379 17.7212 89.3204 17.6362 89.2852 17.5571C89.2501 17.478 89.1973 17.415 89.127 17.3682C89.0567 17.3184 88.9688 17.2935 88.8633 17.2935C88.7579 17.2935 88.67 17.3184 88.5997 17.3682C88.5294 17.415 88.4766 17.478 88.4415 17.5571C88.4063 17.6362 88.3887 17.7212 88.3887 17.812ZM89.2325 13.9009L86.108 18.9019L85.418 18.5547L88.5425 13.5537L89.2325 13.9009Z" fill="white"/>
<defs>
<linearGradient id="paint0_linear_660_19386" x1="61" y1="39.4502" x2="113.5" y2="26.4502" gradientUnits="userSpaceOnUse">
<stop stop-color="#31F4D1"/>
<stop offset="1" stop-color="#18E4BB" stop-opacity="0"/>
</linearGradient>
</defs>
</svg>
