<svg width="24" height="24" viewBox="0 0 24 24" fill="none" xmlns="http://www.w3.org/2000/svg">
<path d="M18.5959 22.9997C18.541 22.9997 18.4815 22.9862 18.4237 22.9606L17.486 22.546L17.4774 22.567L12.405 20.3118L11.9999 20.1317L11.5948 20.3118L6.52256 22.567L6.51396 22.546L5.57619 22.9606C5.51845 22.9862 5.4589 22.9997 5.40397 22.9997C5.33702 22.9997 5.28068 22.9806 5.22667 22.9396C5.06196 22.8143 5.06743 22.5815 5.07304 22.5132L5.15474 21.5179L5.13315 21.5161L5.62258 15.7102L5.65708 15.3008L5.39442 14.9852L1.7218 10.5736L1.73817 10.5588L1.12528 9.81925C1.07092 9.75365 0.951674 9.57796 1.01818 9.3638C1.07594 9.17788 1.23122 9.11447 1.31864 9.09323L2.26228 8.8639L2.25753 8.84158L7.67673 7.5372L8.09484 7.43656L8.30917 7.0631L11.1491 2.11446L11.1679 2.12647L11.6895 1.22123C11.7277 1.15485 11.8346 1.00049 11.9999 1.00049C12.1654 1.00049 12.2722 1.15485 12.3104 1.22123L12.832 2.12647L12.8508 2.11446L15.6907 7.06309L15.905 7.43656L16.3231 7.5372L21.7387 8.84069L21.7338 8.86305L22.6812 9.09324C22.7687 9.11448 22.924 9.1779 22.9818 9.36407C23.0482 9.57792 22.9289 9.75372 22.8745 9.81937L22.2619 10.5589L22.2781 10.5736L18.6055 14.9852L18.3428 15.3008L18.3773 15.7102L18.8668 21.5161L18.8452 21.5179L18.9269 22.5132C18.9325 22.5815 18.938 22.8142 18.7727 22.9398C18.719 22.9806 18.6628 22.9997 18.5959 22.9997Z" fill="#2BECB2"/>
<path d="M12 2.63884L9.17492 7.56164C8.9013 8.03843 8.44385 8.38136 7.91006 8.50985L2.40689 9.83444L6.16136 14.3444C6.49794 14.7487 6.6619 15.2697 6.61768 15.7943L6.1241 21.6496L11.1898 19.3973C11.7056 19.1679 12.2943 19.1679 12.8101 19.3973L17.8759 21.6496L17.3823 15.7943C17.3381 15.2697 17.5021 14.7487 17.8387 14.3444L21.5931 9.83444L16.0899 8.50985C15.5561 8.38136 15.0986 8.03842 14.825 7.56162L12 2.63884ZM12 0C12.507 0 12.9313 0.297621 13.1753 0.720995L13.1957 0.707989L16.5564 6.56439L22.9219 8.09652L22.9166 8.12093C23.377 8.23277 23.7786 8.56251 23.9353 9.06651C24.092 9.57102 23.9525 10.0846 23.643 10.4582L23.661 10.4744L19.3724 15.6259L19.9459 22.4291L19.9222 22.4311C19.9626 22.9238 19.7865 23.4249 19.3763 23.7367C18.9662 24.0483 18.4558 24.0683 18.0205 23.8758L18.0112 23.8987L12 21.2261L5.98886 23.8987L5.97947 23.8758C5.54419 24.0683 5.03371 24.0483 4.62349 23.7367C4.21337 23.4249 4.03742 22.9238 4.07786 22.4311L4.0541 22.4291L4.62758 15.6259L0.339051 10.4744L0.357024 10.4582C0.04746 10.0846 -0.0919417 9.57102 0.064739 9.06651C0.221317 8.56251 0.623047 8.23277 1.0833 8.12093L1.0781 8.09652L7.4435 6.56439L10.8043 0.707989L10.8247 0.720995C11.0687 0.297621 11.493 0 12 0Z" fill="#2BECB2"/>
</svg>
