<svg width="20" height="20" viewBox="0 0 20 20" fill="none" xmlns="http://www.w3.org/2000/svg">
<path d="M10 19.25C15.1086 19.25 19.25 15.1086 19.25 10C19.25 4.89137 15.1086 0.75 10 0.75C4.89137 0.75 0.75 4.89137 0.75 10C0.75 15.1086 4.89137 19.25 10 19.25Z" stroke="#FF6969" stroke-width="1.5"/>
<path d="M10.25 15.5C10.6642 15.5 11 15.1642 11 14.75C11 14.3358 10.6642 14 10.25 14C9.83579 14 9.5 14.3358 9.5 14.75C9.5 15.1642 9.83579 15.5 10.25 15.5Z" fill="#FF6969"/>
<path d="M11 4.75C11 4.33579 10.6642 4 10.25 4C9.83579 4 9.5 4.33579 9.5 4.75V12.25C9.5 12.6642 9.83579 13 10.25 13C10.6642 13 11 12.6642 11 12.25V4.75Z" fill="#FF6969"/>
</svg>
